<svg xmlns="http://www.w3.org/2000/svg" xmlns:xlink="http://www.w3.org/1999/xlink" width="500" zoomAndPan="magnify" viewBox="0 0 375 374.999991" height="500" preserveAspectRatio="xMidYMid meet" version="1.0"><defs><g/><clipPath id="c4a292e173"><rect x="0" width="128" y="0" height="121"/></clipPath><clipPath id="812924db57"><path d="M 286.328125 58.457031 L 312.328125 58.457031 L 312.328125 158.113281 L 286.328125 158.113281 Z M 286.328125 58.457031 " clip-rule="nonzero"/></clipPath><clipPath id="672c4cface"><path d="M 0.328125 0.457031 L 26.328125 0.457031 L 26.328125 100.113281 L 0.328125 100.113281 Z M 0.328125 0.457031 " clip-rule="nonzero"/></clipPath><clipPath id="b9c7527b2d"><rect x="0" width="27" y="0" height="101"/></clipPath><clipPath id="6b629f429f"><path d="M 212.664062 58.441406 L 312.324219 58.441406 L 312.324219 84.441406 L 212.664062 84.441406 Z M 212.664062 58.441406 " clip-rule="nonzero"/></clipPath><clipPath id="a4d3b45d80"><path d="M 0.664062 0.441406 L 100.324219 0.441406 L 100.324219 26.441406 L 0.664062 26.441406 Z M 0.664062 0.441406 " clip-rule="nonzero"/></clipPath><clipPath id="00c9ad93f5"><rect x="0" width="101" y="0" height="27"/></clipPath><clipPath id="00825b12a3"><path d="M 62.667969 196.535156 L 88.671875 196.535156 L 88.671875 296.191406 L 62.667969 296.191406 Z M 62.667969 196.535156 " clip-rule="nonzero"/></clipPath><clipPath id="3e86c83a70"><path d="M 0.667969 0.535156 L 26.671875 0.535156 L 26.671875 100.191406 L 0.667969 100.191406 Z M 0.667969 0.535156 " clip-rule="nonzero"/></clipPath><clipPath id="4b3d496f94"><rect x="0" width="27" y="0" height="101"/></clipPath><clipPath id="96d917c60d"><path d="M 62.675781 270.207031 L 162.332031 270.207031 L 162.332031 296.207031 L 62.675781 296.207031 Z M 62.675781 270.207031 " clip-rule="nonzero"/></clipPath><clipPath id="e69c91ba27"><path d="M 0.675781 0.207031 L 100.332031 0.207031 L 100.332031 26.207031 L 0.675781 26.207031 Z M 0.675781 0.207031 " clip-rule="nonzero"/></clipPath><clipPath id="d1cbf1c04d"><rect x="0" width="101" y="0" height="27"/></clipPath></defs><g transform="matrix(1, 0, 0, 1, 223, 203)"><g clip-path="url(#c4a292e173)"><g fill="#000000" fill-opacity="1"><g transform="translate(0.893086, 89.343322)"><g><path d="M 1.890625 0 L 37.453125 -87.53125 L 39.21875 -87.53125 L 74.765625 0 L 55.75 0 L 52.328125 -9.09375 L 24.328125 -9.09375 L 21.03125 0 Z M 30.46875 -24.921875 L 46.0625 -24.921875 L 38.390625 -46.890625 Z M 30.46875 -24.921875 "/></g></g></g></g></g><g fill="#000000" fill-opacity="1"><g transform="translate(64.284236, 136.77494)"><g><path d="M 48.203125 -48.6875 L 81.53125 -85.78125 L 86.84375 -85.78125 L 86.84375 0 L 69.71875 0 L 69.828125 -47.140625 L 48.203125 -24.453125 L 26.578125 -47.140625 L 26.578125 0 L 9.453125 0 L 9.453125 -85.78125 L 14.890625 -85.78125 Z M 48.203125 -48.6875 "/></g></g></g><g clip-path="url(#812924db57)"><g transform="matrix(1, 0, 0, 1, 286, 58)"><g clip-path="url(#b9c7527b2d)"><g clip-path="url(#672c4cface)"><path fill="#000000" d="M 0.328125 0.457031 L 26.328125 0.457031 L 26.328125 100.097656 L 0.328125 100.097656 Z M 0.328125 0.457031 " fill-opacity="1" fill-rule="nonzero"/></g></g></g></g><g clip-path="url(#6b629f429f)"><g transform="matrix(1, 0, 0, 1, 212, 58)"><g clip-path="url(#00c9ad93f5)"><g clip-path="url(#a4d3b45d80)"><path fill="#000000" d="M 100.324219 0.441406 L 100.324219 26.441406 L 0.683594 26.441406 L 0.683594 0.441406 Z M 100.324219 0.441406 " fill-opacity="1" fill-rule="nonzero"/></g></g></g></g><g clip-path="url(#00825b12a3)"><g transform="matrix(1, 0, 0, 1, 62, 196)"><g clip-path="url(#4b3d496f94)"><g clip-path="url(#3e86c83a70)"><path fill="#000000" d="M 26.671875 100.191406 L 0.667969 100.191406 L 0.667969 0.550781 L 26.671875 0.550781 Z M 26.671875 100.191406 " fill-opacity="1" fill-rule="nonzero"/></g></g></g></g><g clip-path="url(#96d917c60d)"><g transform="matrix(1, 0, 0, 1, 62, 270)"><g clip-path="url(#d1cbf1c04d)"><g clip-path="url(#e69c91ba27)"><path fill="#000000" d="M 0.675781 26.207031 L 0.675781 0.207031 L 100.316406 0.207031 L 100.316406 26.207031 Z M 0.675781 26.207031 " fill-opacity="1" fill-rule="nonzero"/></g></g></g></g></svg>